<svg t="1610732461335" class="icon" viewBox="0 0 1024 1024" version="1.1" xmlns="http://www.w3.org/2000/svg" p-id="21742" width="64" height="64"><path d="M484.352 936.96h-268.8c-62.464 0-113.152-51.712-113.152-115.712V474.624c0-31.744 25.088-57.344 56.32-57.344h549.888c31.232 0 56.32 25.6 56.32 57.344v95.744c0 15.36-12.8 28.16-28.16 28.16s-28.16-12.8-28.16-28.16v-95.744c0-1.024-0.512-1.024-0.512-1.024H158.72v347.648c0 32.768 25.6 59.392 56.832 59.392h268.8c15.36 0 28.16 12.8 28.16 28.16s-12.8 28.16-28.16 28.16z" p-id="21743"></path><path d="M657.408 468.48h-56.32V259.584C601.088 151.552 525.824 64 433.664 64c-92.16 0-167.424 87.552-167.424 195.584V463.36h-56.32V259.584C209.92 120.832 310.272 7.68 433.664 7.68s223.744 113.152 223.744 251.904V468.48z m298.496 294.912c-3.072-18.432-15.36-30.208-31.232-30.208h-1.536c-23.04 0-42.496-19.456-42.496-42.496 0-5.632 2.56-12.8 4.096-15.872 7.168-15.872 1.536-35.84-13.824-46.592h-0.512l-53.76-29.696-1.536-1.024c-4.608-2.56-9.728-3.072-15.36-3.072-11.264 0-21.504 4.608-28.672 11.776-6.656 6.144-24.064 19.968-33.792 19.968-10.24 0-27.136-13.824-34.304-19.968-7.168-8.192-18.432-11.776-28.672-11.776-5.632 0-10.24 1.024-15.872 3.072h-1.024l-55.296 30.208-1.536 1.024c-14.336 10.24-19.968 29.696-12.8 45.568 1.536 3.072 4.096 10.24 4.096 15.872 0 23.04-19.456 42.496-42.496 42.496h-2.56c-15.36 0-27.136 11.776-30.208 30.208 0 1.024-4.608 24.576-4.608 44.032s4.608 42.496 4.608 44.032c3.072 17.408 15.872 30.208 31.232 30.208h1.536c23.04 0 42.496 19.456 42.496 42.496 0 5.632-2.56 13.824-4.096 15.872-7.168 15.872-1.536 35.84 13.824 46.592h1.024l52.736 29.696 1.536 1.024c4.608 2.56 9.728 3.072 15.36 3.072 11.264 0 22.528-4.608 29.696-12.8 8.192-8.704 25.6-21.504 34.304-21.504 10.24 0 28.16 14.336 35.328 21.504 7.168 8.192 18.432 12.8 29.696 12.8 5.632 0 10.24-1.024 15.872-3.072h1.024l54.272-30.208 1.536-1.024c14.336-10.24 19.968-29.696 12.8-45.568-1.024-2.56-4.096-10.24-4.096-15.872 0-23.04 19.456-42.496 42.496-42.496h2.56c15.36 0 27.136-11.776 30.208-30.208 1.024-2.56 4.608-25.6 4.608-44.032-1.536-17.408-5.632-38.912-6.656-44.032z m-125.44 160.256c0 8.704 1.536 17.408 4.096 24.576l-32.768 18.432c-3.072-3.072-8.192-7.168-14.336-11.776-17.408-13.824-35.328-19.968-52.224-19.968-15.872 0-33.792 6.144-51.2 19.968-5.632 4.096-10.24 8.192-13.824 11.264l-31.232-17.408c2.56-6.144 4.096-15.872 4.096-24.576 0-45.568-33.792-83.968-77.824-91.136-1.024-7.168-2.56-16.896-2.56-24.576s1.024-17.408 2.56-24.576c44.032-7.168 77.824-46.592 77.824-91.136 0-8.704-1.536-17.408-4.096-24.576l34.304-19.456c3.072 3.072 8.192 7.168 14.336 11.264 17.408 12.8 34.304 19.456 50.176 19.456s32.768-6.656 50.176-18.432c5.632-4.096 10.24-8.192 13.824-11.264l32.768 18.432c-2.56 6.144-4.096 15.36-4.096 24.576 0 45.568 33.792 83.968 77.824 91.136 1.024 7.168 2.56 16.896 2.56 24.576s-1.024 17.408-2.56 24.576c-44.032 6.656-77.824 45.056-77.824 90.624z m-94.208-202.24c-47.104 0-85.504 38.4-85.504 85.504s38.4 85.504 85.504 85.504 85.504-38.4 85.504-85.504-38.4-85.504-85.504-85.504z m0 121.344c-19.456 0-35.328-15.872-35.328-35.328s15.872-35.328 35.328-35.328 35.328 15.872 35.328 35.328-16.384 35.328-35.328 35.328z" p-id="21744"></path></svg>