<svg t="1610722880089" class="icon" viewBox="0 0 1024 1024" version="1.1" xmlns="http://www.w3.org/2000/svg" p-id="10649" width="64" height="64"><path d="M194.133333 388.266667c0 53.333333 42.666667 96 96 96s96-42.666667 96-96-42.666667-96-96-96-96 42.666667-96 96z m128 0c0 17.066667-14.933333 32-32 32s-32-14.933333-32-32 14.933333-32 32-32 32 14.933333 32 32zM951.466667 569.6L469.333333 104.533333c-12.8-12.8-32-12.8-44.8 0-12.8 12.8-12.8 32 0 44.8l458.666667 441.6-270.933333 273.066667c-12.8 12.8-12.8 32 0 44.8 6.4 6.4 14.933333 8.533333 23.466666 8.533333 8.533333 0 17.066667-2.133333 23.466667-8.533333l294.4-294.4c6.4-6.4 8.533333-14.933333 8.533333-23.466667 0-8.533333-4.266667-14.933333-10.666666-21.333333z" p-id="10650"></path><path d="M797.866667 593.066667c0-8.533333-4.266667-17.066667-8.533334-23.466667L371.2 151.466667l-12.8-12.8c-6.4-6.4-14.933333-8.533333-23.466667-8.533334H64c-17.066667 0-32 14.933333-32 32v270.933334c0 8.533333 4.266667 17.066667 8.533333 23.466666l430.933334 430.933334c6.4 6.4 14.933333 8.533333 23.466666 8.533333s17.066667-2.133333 23.466667-8.533333L789.333333 616.533333c4.266667-6.4 8.533333-14.933333 8.533334-23.466666zM494.933333 819.2L96 420.266667V194.133333h226.133333l398.933334 398.933334-226.133334 226.133333z" p-id="10651"></path></svg>