<svg t="1610729755092" class="icon" viewBox="0 0 1024 1024" version="1.1" xmlns="http://www.w3.org/2000/svg" p-id="4371" width="128" height="128"><path d="M922 339c-22.4-53-54.5-100.6-95.3-141.4-40.9-40.9-88.4-72.9-141.4-95.3-54.9-23.2-113.2-35-173.2-35s-118.3 11.8-173.2 35c-53 22.4-100.6 54.5-141.4 95.3-41 40.8-73.1 88.4-95.5 141.4-23.2 54.9-35 113.2-35 173.2 0 60.1 11.8 118.3 35 173.2 22.4 53 54.5 100.6 95.3 141.4 40.9 40.9 88.4 72.9 141.4 95.3 54.9 23.2 113.2 35 173.2 35s118.3-11.8 173.2-35c53-22.4 100.6-54.5 141.4-95.3 40.9-40.9 72.9-88.4 95.3-141.4 23.2-54.9 35-113.2 35-173.2 0.2-60-11.6-118.3-34.8-173.2zM798.6 704.1c-27.3-34-62.2-54.2-100.8-53.8-5.5 0-10.2 1.8-14.2 3.9-81.2 45.9-244.1 53.1-343.8 0-4.9-2.6-9.8-3.9-14.3-3.9-35.9 0.1-70.3 21.6-97.9 56.8-38.2-55.5-60.5-122.7-60.5-195 0-190.2 154.8-345 345-345s345 154.8 345 345c-0.1 71.1-21.6 137.1-58.5 192z" fill="#555555" p-id="4372"></path><path d="M512.8 458.7m-202.6 0a202.6 202.6 0 1 0 405.2 0 202.6 202.6 0 1 0-405.2 0Z" fill="#555555" p-id="4373"></path></svg>