<svg t="1610731148087" class="icon" viewBox="0 0 1024 1024" version="1.1" xmlns="http://www.w3.org/2000/svg" p-id="13426" width="64" height="64"><path d="M616.8 499.52c44.34-32.41 73.31-84.65 73.31-143.65 0-98.15-79.86-178.01-178.02-178.01s-178.02 79.85-178.02 178.01c0 59 28.98 111.25 73.32 143.66-114.84 42.7-197.02 153.08-197.02 282.59v64.27h603.42v-64.27c0.02-129.52-82.16-239.91-196.99-282.6zM512.1 238.55c64.7 0 117.33 52.63 117.33 117.32 0 64.7-52.63 117.33-117.33 117.33s-117.33-52.63-117.33-117.33c0-64.69 52.63-117.32 117.33-117.32zM753.13 785.7H271.07v-3.59c0-132.9 108.14-241.03 241.06-241.03 132.89 0 241 108.13 241 241.03v3.59z" p-id="13427"></path><path d="M348.64 502.43c0-1.04-0.2-2.02-0.3-3.03 0.09-0.95 0.29-1.86 0.29-2.83 0-16.76-13.58-30.34-30.34-30.34-49.54 0-89.84-40.3-89.84-89.84 0-49.53 40.3-89.83 89.84-89.83 16.76 0 30.34-13.58 30.34-30.34s-13.58-30.34-30.34-30.34c-82.99 0-150.52 67.52-150.52 150.51 0 46.16 20.93 87.5 53.76 115.13C130.92 529.5 67.1 619.05 67.1 723.26v27.61c0 16.76 13.58 30.34 30.34 30.34s30.34-13.58 30.34-30.34v-27.61c0-105.04 85.46-190.49 190.52-190.49 16.76 0 30.34-13.58 30.34-30.34zM802.68 491.53c32.83-27.63 53.76-68.97 53.76-115.13 0-82.99-67.53-150.51-150.52-150.51-16.76 0-30.34 13.58-30.34 30.34s13.58 30.34 30.34 30.34c49.54 0 89.84 40.3 89.84 89.83 0 49.54-40.3 89.84-89.84 89.84-16.76 0-30.34 13.58-30.34 30.34 0 0.97 0.2 1.89 0.29 2.83-0.1 1.01-0.3 1.99-0.3 3.03 0 16.76 13.58 30.34 30.34 30.34 105.06 0 190.52 85.45 190.52 190.49v27.61c0 16.76 13.58 30.34 30.34 30.34 16.76 0 30.34-13.58 30.34-30.34v-27.61c-0.01-104.22-63.84-193.77-154.43-231.74z" p-id="13428"></path></svg>